<svg id="Layer_1" data-name="Layer 1" xmlns="http://www.w3.org/2000/svg" xmlns:xlink="http://www.w3.org/1999/xlink" viewBox="0 0 2134.28 2083.42"><defs><style>.cls-1{fill:#233554;fill-rule:evenodd;stroke:url(#linear-gradient);}.cls-1,.cls-2,.cls-3,.cls-4,.cls-5{stroke-miterlimit:10;}.cls-2,.cls-3,.cls-4,.cls-5{fill:#81AED8;}.cls-2{stroke:url(#linear-gradient-2);}.cls-3{stroke:url(#linear-gradient-3);}.cls-4{stroke:url(#linear-gradient-4);}.cls-5{stroke:url(#linear-gradient-5);}</style><linearGradient id="linear-gradient" x1="1423.95" y1="2173.01" x2="3558.23" y2="2173.01" gradientUnits="userSpaceOnUse"><stop offset="0" stop-color="#fff"/><stop offset="1"/></linearGradient><linearGradient id="linear-gradient-2" x1="1708.58" y1="1863.57" x2="2477.69" y2="1863.57" xlink:href="#linear-gradient"/><linearGradient id="linear-gradient-3" x1="2037.84" y1="2286.65" x2="2237.9" y2="2286.65" xlink:href="#linear-gradient"/><linearGradient id="linear-gradient-4" x1="2305.19" y1="2462.96" x2="3044.27" y2="2462.96" xlink:href="#linear-gradient"/><linearGradient id="linear-gradient-5" x1="3094.94" y1="2548.85" x2="3197.16" y2="2548.85" xlink:href="#linear-gradient"/></defs><path class="cls-1" d="M1457.39,1886.55c1-2.2,2.16-5,.57-.5.21-.43.46-.85.67-1.28,7.63-48.93-4-1.13-6.2,13.48.74-2.91,1.48-5.81,2.3-8.72.86-1,1.78-2,2.66-3ZM2515.5,1171.16c206.23,0,380.33,46.09,539.75,152.61,3.19-6.24,2-16.1,2.13-16.1,1.84-7.3,17.93-.78,21.69,1.06,12.34,6.74,25.11,15.47,36.73,23.47,12.14,8.38,24.33,15.32,36,24.75,13.47,11.14,27.94,21.92,40.92,33.62,7.73,6.1,15.17,6.1,22.48-.43,6,10.92,12.48,22.2,18.65,32.91.85,2.41,8.37,14.18,10.35,16.66,12.91,13.62,25.46,27.74,37.59,42,11.27,12.19,22.27,24.68,33,37.3,12.76,16.59,25,33.4,36.8,50.7,15.75,23,31.42,47,46.17,70.71,7.8,13.47,15.39,27,22.69,40.91q21,28.83,39.85,59c-3.18-13.19-11.55-36.44,2.77-8,1.07,2.06,7.09,13.83,7.23,16,.36,3,0,5.39.43,8.29a19.52,19.52,0,0,1-2.13.92c4,7.73,16.52,32.48,16.95,40.07-5-8.3-22.4-38.65-27.65-44-.85-.93-3.76-5.68-4.68-7.1.56,1.56,2.9,6.67,3,7.73.57,3.76,7.16,19.22,8.86,24.12q19,35.73,35.17,73c10.57,27,15.75,56.38,23.62,84,15.38,46.45,27.94,99.78,32.48,148.28.92,14,2.47,66,.28,75.31-6.17,122.48-30.49,194-76,307.91-2,6-3.9,11.85-6,17.66-3,8.87-10.49,75.46-14.25,81.06-11.35,26-24.82,55.24-39.43,79.56-16.31,27.17-31.91,53.76-49.22,80.57-43,67.58-76.51,116.08-130.69,176.43-2.06,1.49-8.86,9.5-11.27,12-5.54,5.95-40.36,41.69-41.49,49.92,0,0-41.83,45.31-65.94,63.61-22.7,17.59-55.68,39.36-81.14,52.48-10.49,5.67-31.27,17.16-31.19,17.16,7.08-2.62,14.11-5.25,21.2-8-6.53,3.75-13.05,7.44-19.58,10.92-28,15.25-18.08,19.86-47.72,31.2,1.35.28,2.76.42,4.11.71-4.75,2.55-9.57,5.1-14.39,7.66a19.14,19.14,0,0,1-2.77,1.27c-8.37,3.76-24.32,10.14-33,12.2,5.68-2.9,11.5-5.82,17-8.72-1.28-.85-2.63-1.71-3.9-2.56-10,3.13-55,13.27-65,16,4.25-.21,8.5-.43,12.83-.71-18.93,8.58-33.61,14.54-53.75,20.28-6,1.57-4.11.79-8.86,1.57-111.2,26.8-203.53,37-318.25,32.76-2.8-.78-15.39-.85-14.47-.85-1.2,1.13-2.37,2.2-3.54,3.19-33.19-.57-64.64-3.62-97.51-5.53-30-1.14-60.1-3.62-90-7.38,0,0-53.76-12-79.86-20.07-14.46-4.4-28.46-7.86-41.41-15.67-17.44-8.87-50.2-18.86-70.2-26-2.88-1-12.91-4.4-14.86-5.67A1100.26,1100.26,0,0,1,1972.69,3081c-9.22-5.25-18.26-10.63-27.34-16.17-34.08-18.08-66.23-39.42-96.83-62.76a1108,1108,0,0,1-102.65-90.92c-35.6-36.37-67.65-72.82-97.93-113.74-11.46-15.18-32.2-47.3-32.2-47.3-25.78-37-59.39-55.17-80.24-95.17,0,0-39-57.51-46.52-75.17-.71-1.63-3.47-7.51-3.75-8.86-10.32-24.61,49,46.38,40.06,21.28,0,0-49.07-133.89-55.2-152.4-6.11-18.3-12.56-36.81-17.95-55.31-20.24-72.55-27.16-150.42-27.69-225.52,0-11.91.28-23.54.6-35.45,1.39-11,2.91-21.85,4.65-32.7,1.38-24.11,3-47.94,5.18-72.05,3.4-36.09,18.5-108.14,18.5-108.14-2.23,17.16-4,34.25-5.46,51.41,8.51-50.2,19.68-93.68,35.53-142.4,4.82-14.32,22-67.51,28.26-77.3,18.12-44.88,37-86.79,60.74-129,16.81-29.5,39.85-74,61.27-99.56,19.47-23.19,38.15-46.87,58.47-69.5,8.65-9.71,35.31-42,43.61-47.44,6.67-4.33,17-17.94,25.92-19.86,9.86-5.1,51-43.9,63.26-54.6,42.19-16,76.4-37.44,120.83-50.7,12.45-3.41,26.07-9.51,37.91-14.68,2.3-1.49,4.5-3.06,6.94-4.33,0,.07-1.13,1.7-1.27,2,5.1-2.41,10.39-4.6,15.6-6.8a30,30,0,0,0-14.33,4.82c2.06-2.84,154-65.17,175.69-71.05,7.1-1.71,7.56-.64,14.83-3.55,8.76-3.27,18.15-6.1,27.16-8.51,13.82-4.19,23.47-7.37,37.15-12.48,7.7-2.84,16.46-3,24.47-3.83,16.38-1.7,29.11-7.45,45.1-10.28,4.64-.78,3.48.14,3.48.14,3.37,0,0,0,.21,1s34.07-3.9,34.07-3.9,44.86-6.88,67.45-7.73a63.1,63.1,0,0,1,8.85-.49c9.65-.15-27.75,8.64-22.72,7.86-11,1.07-22,.07-33,1.49,5-1.2,10.17-2.34,15.24-3.47,23.8-.71,23.66-.78,2.67-.64,0,0,6.66-1.35,10.07-2-.29,0-45.49,5-26.74,4.82-67.12,9.44-84.64,13.34-133.25,24.75-6,1.71-65.59,18.44-66.73,22.84-.46,2.55-190.19,78.93-191.92,79.78-17.81,37.38-9.47,22.34-38.69,50.84-2.34,2.35-3.48,4.26-3.76,5.89,159.52-106.79,368.9-153,575.22-153ZM1458,1886.05c-2.09,4.83-3.8,10.07-5.82,15,.29-1.35.57-2.7.82-4,.78-2.14,3.69-9.58,5-10.93Zm923.16-754.25c-6.35,0-19.43,3.12-19.43,3.12,11.34-.14,12.09.28-1.31.28-2.45.71-4.9,1.42-7.31,2,5.6-.57,11.24-1.28,16.88-1.85C2367.68,1135.77,2386.33,1131.73,2381.12,1131.8Z" transform="translate(-1423.95 -1131.3)"/><path class="cls-2" d="M1757.64,1826.27c-5.56,2.06-11.17,4.11-16.77,6.17-45.92,16.74-42.3,92.47,12.16,89.71,225-11.27,451.8-16.31,676.77-19.22,63.18-.85,63.18-99.63,0-98-225.4,5.74-451.05,27-676.77,25.88q6.06,44.78,12.17,89.71c5.67-1.71,11.38-3.4,17-5.11,57.26-17.37,31-109.35-24.61-89.14Z" transform="translate(-1423.95 -1131.3)"/><path class="cls-3" d="M2132.63,1893.36c.14-1.84.25-3.69.36-5.6,3.86-61.28-99.74-60.49-94.46,0,23.23,265.36,85,521.79,87.44,789.56.64,71.84,110.69,71.84,111.37,0,2.48-267.91-76.23-525.05-104.35-789.56q-23.56,23.61-47.23,47.22c1.91-.14,3.76-.21,5.68-.35,23.51-1.42,39.78-17.73,41.19-41.27Z" transform="translate(-1423.95 -1131.3)"/><path class="cls-4" d="M2305.73,2276.87c4.29,113.6,17.74,253.73,64.68,357.62,18.68,41.42,78.25,25.1,89.92-11.77,23.72-75,45.7-150.49,69.89-225.16q-31.11-21.27-5.11,31.85,9.57,37,15.44,74.81c9.5,52.48,24.75,103,43.83,152.61,18.22,47.37,78.85,47.87,96.86,0,17-45,34-89.85,53.55-133.89,10.35-23.47,21.55-46.38,33.54-69.07,24.25-46.24,24.61-52.69,42-.14,36.45,110.2,52.69,273.59,208.35,198.49,52.47-25.25,14.39-102-38-90.13-90,20.42-64.18-361.75-233.38-243.88-91,63.4-127.43,212.95-162.89,311.95h96.86c-34.32-85.24-52.4-174.66-68.71-264.79-6.52-36.24-39.08-92.9-81.22-92.9-113.95,0-144.69,249.83-165.9,324.08q45.06-5.85,90-11.77c-40.39-83.05-53.9-217.92-59.43-307.91-3.51-57.59-92.47-58.37-90.21,0Z" transform="translate(-1423.95 -1131.3)"/><path class="cls-5" d="M3095.66,2547.62c.08.92.15,1.91.22,2.83,5.82,64.53,94.46,64.53,100.28,0,.14-.92.21-1.91.28-2.83,5.88-65-106.73-65-100.78,0Z" transform="translate(-1423.95 -1131.3)"/></svg>